<?xml version="1.0" encoding="utf-8"?>
<!-- Generated by Mocodo 4.0.8 -->
<svg width="476" height="304" viewBox="0 0 476 304" xmlns="http://www.w3.org/2000/svg">
<rect x="0" y="0" width="476" height="304" fill="#f7f7f7" stroke="none" stroke-width="0"/>

<!-- Association INSCRIT -->
<g>
	<line x1="47" y1="152" x2="233" y2="34" stroke="#d6604d" stroke-width="2"/>
	<line x1="143" y1="34" x2="233" y2="34" stroke="#d6604d" stroke-width="2"/>
	<g>
		<path d="M246 9 a14 14 90 0 1 14 14 V34 h-54 V23 a14 14 90 0 1 14 -14" fill="#f4a582" stroke="#f4a582" stroke-width="0"/>
		<path d="M260 34 v11 a14 14 90 0 1 -14 14 H220 a14 14 90 0 1 -14 -14 V34 H54" fill="#fddbc7" stroke="#fddbc7" stroke-width="0"/>
		<rect x="206" y="9" width="54" height="50" fill="none" rx="14" stroke="#d6604d" stroke-width="2"/>
		<line x1="206" y1="34" x2="260" y2="34" stroke="#d6604d" stroke-width="1"/>
		<text x="214" y="26.75" fill="#000000" font-family="Verdana" font-size="12">Inscrit</text>
	</g>
	<text x="90" y="140.0" fill="#2166ac" font-family="Verdana" font-size="12">1,N</text>
	<text x="176" y="51" fill="#2166ac" font-family="Verdana" font-size="12">1,1</text>
</g>

<!-- Association CHOIX -->
<g>
	<line x1="47" y1="152" x2="143" y2="152" stroke="#d6604d" stroke-width="2"/>
	<line x1="233" y1="152" x2="143" y2="152" stroke="#d6604d" stroke-width="2"/>
	<g>
		<path d="M154 127 a14 14 90 0 1 14 14 V152 h-50 V141 a14 14 90 0 1 14 -14" fill="#f4a582" stroke="#f4a582" stroke-width="0"/>
		<path d="M168 152 v11 a14 14 90 0 1 -14 14 H132 a14 14 90 0 1 -14 -14 V152 H50" fill="#fddbc7" stroke="#fddbc7" stroke-width="0"/>
		<rect x="118" y="127" width="50" height="50" fill="none" rx="14" stroke="#d6604d" stroke-width="2"/>
		<line x1="118" y1="152" x2="168" y2="152" stroke="#d6604d" stroke-width="1"/>
		<text x="126" y="144.75" fill="#000000" font-family="Verdana" font-size="12">Choix</text>
	</g>
	<text x="90" y="169" fill="#2166ac" font-family="Verdana" font-size="12">N,N</text>
	<text x="174" y="169" fill="#2166ac" font-family="Verdana" font-size="12">1,N</text>
</g>

<!-- Association RESPONSABLE -->
<g>
	<line x1="445" y1="152" x2="344" y2="152" stroke="#d6604d" stroke-width="2"/>
	<line x1="233" y1="152" x2="344" y2="152" stroke="#d6604d" stroke-width="2"/>
	<g>
		<path d="M376 127 a14 14 90 0 1 14 14 V152 h-92 V141 a14 14 90 0 1 14 -14" fill="#f4a582" stroke="#f4a582" stroke-width="0"/>
		<path d="M390 152 v11 a14 14 90 0 1 -14 14 H312 a14 14 90 0 1 -14 -14 V152 H92" fill="#fddbc7" stroke="#fddbc7" stroke-width="0"/>
		<rect x="298" y="127" width="92" height="50" fill="none" rx="14" stroke="#d6604d" stroke-width="2"/>
		<line x1="298" y1="152" x2="390" y2="152" stroke="#d6604d" stroke-width="1"/>
		<text x="306" y="144.75" fill="#000000" font-family="Verdana" font-size="12">Responsable</text>
	</g>
	<text x="397" y="169" fill="#2166ac" font-family="Verdana" font-size="12">1,1</text>
	<text x="270" y="169" fill="#2166ac" font-family="Verdana" font-size="12">1,N</text>
</g>

<!-- Association INCLUS -->
<g>
	<line x1="47" y1="152" x2="233" y2="270" stroke="#d6604d" stroke-width="2"/>
	<line x1="143" y1="270" x2="233" y2="270" stroke="#d6604d" stroke-width="2"/>
	<g>
		<path d="M245 245 a14 14 90 0 1 14 14 V270 h-52 V259 a14 14 90 0 1 14 -14" fill="#f4a582" stroke="#f4a582" stroke-width="0"/>
		<path d="M259 270 v11 a14 14 90 0 1 -14 14 H221 a14 14 90 0 1 -14 -14 V270 H52" fill="#fddbc7" stroke="#fddbc7" stroke-width="0"/>
		<rect x="207" y="245" width="52" height="50" fill="none" rx="14" stroke="#d6604d" stroke-width="2"/>
		<line x1="207" y1="270" x2="259" y2="270" stroke="#d6604d" stroke-width="1"/>
		<text x="215" y="262.75" fill="#000000" font-family="Verdana" font-size="12">Inclus</text>
	</g>
	<text x="90" y="173.0" fill="#2166ac" font-family="Verdana" font-size="12">1,N</text>
	<text x="178" y="287" fill="#2166ac" font-family="Verdana" font-size="12">1,1</text>
</g>

<!-- Entity PROMO -->
<g>
	<g>
		<rect x="115" y="9" width="56" height="25" fill="#92c5de" stroke="none" stroke-width="0" opacity="1"/>
		<rect x="115" y="34" width="56" height="25" fill="#d1e5f0" stroke="none" stroke-width="0" opacity="1"/>
		<rect x="115" y="9" width="56" height="50" fill="none" stroke="#4393c3" stroke-width="2" opacity="1"/>
		<line x1="115" y1="34" x2="171" y2="34" stroke="#4393c3" stroke-width="1"/>
	</g>
	<text x="120" y="26.75" fill="#000000" font-family="Verdana" font-size="12">PROMO</text>
	<text x="120" y="51.8" fill="#000000" font-family="Verdana" font-size="12">annee</text>
	<line x1="120" y1="54" x2="158" y2="54" stroke="#000000" stroke-width="1"/>
</g>

<!-- Entity ETUDIANT -->
<g>
	<g>
		<rect x="9" y="84" width="76" height="25" fill="#92c5de" stroke="none" stroke-width="0" opacity="1"/>
		<rect x="9" y="109" width="76" height="111" fill="#d1e5f0" stroke="none" stroke-width="0" opacity="1"/>
		<rect x="9" y="84" width="76" height="136" fill="none" stroke="#4393c3" stroke-width="2" opacity="1"/>
		<line x1="9" y1="109" x2="85" y2="109" stroke="#4393c3" stroke-width="1"/>
	</g>
	<text x="15" y="101.75" fill="#000000" font-family="Verdana" font-size="12">ETUDIANT</text>
	<text x="14" y="126.8" fill="#000000" font-family="Verdana" font-size="12">nom</text>
	<line x1="14" y1="129" x2="42" y2="129" stroke="#000000" stroke-width="1"/>
	<text x="14" y="143.8" fill="#000000" font-family="Verdana" font-size="12">prenom</text>
	<text x="14" y="160.8" fill="#000000" font-family="Verdana" font-size="12">naissance</text>
	<text x="14" y="177.8" fill="#000000" font-family="Verdana" font-size="12">adresse</text>
	<text x="14" y="194.8" fill="#000000" font-family="Verdana" font-size="12">bac</text>
	<text x="14" y="211.8" fill="#000000" font-family="Verdana" font-size="12">annee_bac</text>
</g>

<!-- Entity MODULE -->
<g>
	<g>
		<rect x="201" y="127" width="64" height="25" fill="#92c5de" stroke="none" stroke-width="0" opacity="1"/>
		<rect x="201" y="152" width="64" height="25" fill="#d1e5f0" stroke="none" stroke-width="0" opacity="1"/>
		<rect x="201" y="127" width="64" height="50" fill="none" stroke="#4393c3" stroke-width="2" opacity="1"/>
		<line x1="201" y1="152" x2="265" y2="152" stroke="#4393c3" stroke-width="1"/>
	</g>
	<text x="207" y="144.75" fill="#000000" font-family="Verdana" font-size="12">MODULE</text>
	<text x="206" y="169.8" fill="#000000" font-family="Verdana" font-size="12">matiere</text>
	<line x1="206" y1="172" x2="253" y2="172" stroke="#000000" stroke-width="1"/>
</g>

<!-- Entity PROF -->
<g>
	<g>
		<rect x="423" y="127" width="44" height="25" fill="#92c5de" stroke="none" stroke-width="0" opacity="1"/>
		<rect x="423" y="152" width="44" height="25" fill="#d1e5f0" stroke="none" stroke-width="0" opacity="1"/>
		<rect x="423" y="127" width="44" height="50" fill="none" stroke="#4393c3" stroke-width="2" opacity="1"/>
		<line x1="423" y1="152" x2="467" y2="152" stroke="#4393c3" stroke-width="1"/>
	</g>
	<text x="429" y="144.75" fill="#000000" font-family="Verdana" font-size="12">PROF</text>
	<text x="428" y="169.8" fill="#000000" font-family="Verdana" font-size="12">nom</text>
	<line x1="428" y1="172" x2="456" y2="172" stroke="#000000" stroke-width="1"/>
</g>

<!-- Entity GRP_TD -->
<g>
	<g>
		<rect x="113" y="245" width="60" height="25" fill="#92c5de" stroke="none" stroke-width="0" opacity="1"/>
		<rect x="113" y="270" width="60" height="25" fill="#d1e5f0" stroke="none" stroke-width="0" opacity="1"/>
		<rect x="113" y="245" width="60" height="50" fill="none" stroke="#4393c3" stroke-width="2" opacity="1"/>
		<line x1="113" y1="270" x2="173" y2="270" stroke="#4393c3" stroke-width="1"/>
	</g>
	<text x="118" y="262.75" fill="#000000" font-family="Verdana" font-size="12">GRP_TD</text>
	<text x="118" y="287.8" fill="#000000" font-family="Verdana" font-size="12">id</text>
	<line x1="118" y1="290" x2="130" y2="290" stroke="#000000" stroke-width="1"/>
</g>
</svg>